<svg version="1.1" xmlns="http://www.w3.org/2000/svg" viewBox="0 0 720.3134765625 469.4899902343748" width="720.3134765625" height="469.4899902343748">
  <!-- svg-source:excalidraw -->
  
  <defs>
    <style class="style-fonts">
      @font-face {
        font-family: "Virgil";
        src: url("https://excalidraw.com/Virgil.woff2");
      }
      @font-face {
        font-family: "Cascadia";
        src: url("https://excalidraw.com/Cascadia.woff2");
      }
    </style>
  </defs>
  <rect x="0" y="0" width="720.3134765625" height="469.4899902343748" fill="#ffffff"></rect><g stroke-linecap="round" transform="translate(10 53.89794921874977) rotate(0 350.15673828125 202.7960205078125)"><path d="M32 0 M32 0 C240.84 1.29, 450.27 0.31, 668.31 0 M32 0 C268.41 1.31, 504 1.69, 668.31 0 M668.31 0 C689.48 -1.19, 698.62 8.92, 700.31 32 M668.31 0 C691.32 1.39, 699.01 11.14, 700.31 32 M700.31 32 C698.25 166.24, 699.57 301.48, 700.31 373.59 M700.31 32 C700.6 111.83, 699.93 191.06, 700.31 373.59 M700.31 373.59 C701.47 394.8, 691.28 407.41, 668.31 405.59 M700.31 373.59 C700.65 393.96, 688.17 407.69, 668.31 405.59 M668.31 405.59 C464.88 406.65, 262.18 407.48, 32 405.59 M668.31 405.59 C472.54 406.37, 275.92 406.08, 32 405.59 M32 405.59 C10.82 404.22, 1.79 396.85, 0 373.59 M32 405.59 C9.94 407.87, -1.71 393.58, 0 373.59 M0 373.59 C-3.3 254.95, -2.62 136.07, 0 32 M0 373.59 C-2.84 253.92, -2.91 134.45, 0 32 M0 32 C-0.46 12.66, 12.34 -0.78, 32 0 M0 32 C0.49 11.09, 10.16 -1.74, 32 0" stroke="#000000" stroke-width="1" fill="none"></path></g><g transform="translate(32.09368896484375 68.06719970703102) rotate(0 15.179985046386719 12.5)"><text x="0" y="0" font-family="Virgil, Segoe UI Emoji" font-size="20px" fill="#000000" text-anchor="start" style="white-space: pre;" direction="ltr" dominant-baseline="text-before-edge">vpc</text></g><g stroke-linecap="round" transform="translate(62.304901123046875 143.20350646972634) rotate(0 123.7139892578125 56.34385681152344)"><path d="M28.17 0 M28.17 0 C87.78 -1.4, 149.59 1.14, 219.26 0 M28.17 0 C102.24 -1.6, 176.03 -0.75, 219.26 0 M219.26 0 C239.08 0.24, 248.47 8.73, 247.43 28.17 M219.26 0 C237.62 -1.47, 249.04 8.97, 247.43 28.17 M247.43 28.17 C248.11 47.57, 248.92 68.24, 247.43 84.52 M247.43 28.17 C246.94 45.94, 248.63 64.03, 247.43 84.52 M247.43 84.52 C245.86 104.54, 236.42 111.09, 219.26 112.69 M247.43 84.52 C247.64 102.35, 238.71 113.55, 219.26 112.69 M219.26 112.69 C152.8 113.26, 89.11 113.58, 28.17 112.69 M219.26 112.69 C170.82 112.35, 124.37 113.87, 28.17 112.69 M28.17 112.69 C11.2 111.69, 0.37 102.61, 0 84.52 M28.17 112.69 C9.79 113.77, 0.82 103.31, 0 84.52 M0 84.52 C-1.18 65.94, -0.91 45.52, 0 28.17 M0 84.52 C-0.87 64.75, 0.15 43.79, 0 28.17 M0 28.17 C1.8 7.83, 9.88 1.02, 28.17 0 M0 28.17 C1.31 8.64, 10.6 1.62, 28.17 0" stroke="#000000" stroke-width="1" fill="none"></path></g><g transform="translate(220.84027099609375 149.37349884454648) rotate(0 27.70917510986328 5.231074369230413)"><text x="0" y="0" font-family="Virgil, Segoe UI Emoji" font-size="8.369718990768675px" fill="#000000" text-anchor="start" style="white-space: pre;" direction="ltr" dominant-baseline="text-before-edge">NAT gateway</text></g><g stroke-linecap="round" transform="translate(235.69652220470834 119.68183898925781) rotate(0 13.18230741046068 13.182307410460652)"><path d="M26.36 13.18 C26.36 13.95, 26.3 14.72, 26.16 15.47 C26.03 16.22, 25.83 16.97, 25.57 17.69 C25.31 18.41, 24.98 19.11, 24.6 19.77 C24.22 20.43, 23.77 21.07, 23.28 21.66 C22.79 22.24, 22.24 22.79, 21.66 23.28 C21.07 23.77, 20.43 24.22, 19.77 24.6 C19.11 24.98, 18.41 25.31, 17.69 25.57 C16.97 25.83, 16.22 26.03, 15.47 26.16 C14.72 26.3, 13.95 26.36, 13.18 26.36 C12.42 26.36, 11.64 26.3, 10.89 26.16 C10.14 26.03, 9.39 25.83, 8.67 25.57 C7.96 25.31, 7.25 24.98, 6.59 24.6 C5.93 24.22, 5.29 23.77, 4.71 23.28 C4.12 22.79, 3.57 22.24, 3.08 21.66 C2.59 21.07, 2.15 20.43, 1.77 19.77 C1.38 19.11, 1.06 18.41, 0.79 17.69 C0.53 16.97, 0.33 16.22, 0.2 15.47 C0.07 14.72, 0 13.95, 0 13.18 C0 12.42, 0.07 11.64, 0.2 10.89 C0.33 10.14, 0.53 9.39, 0.79 8.67 C1.06 7.96, 1.38 7.25, 1.77 6.59 C2.15 5.93, 2.59 5.29, 3.08 4.71 C3.57 4.12, 4.12 3.57, 4.71 3.08 C5.29 2.59, 5.93 2.15, 6.59 1.77 C7.25 1.38, 7.96 1.06, 8.67 0.79 C9.39 0.53, 10.14 0.33, 10.89 0.2 C11.64 0.07, 12.42 0, 13.18 0 C13.95 0, 14.72 0.07, 15.47 0.2 C16.22 0.33, 16.97 0.53, 17.69 0.79 C18.41 1.06, 19.11 1.38, 19.77 1.77 C20.43 2.15, 21.07 2.59, 21.66 3.08 C22.24 3.57, 22.79 4.12, 23.28 4.71 C23.77 5.29, 24.22 5.93, 24.6 6.59 C24.98 7.25, 25.31 7.96, 25.57 8.67 C25.83 9.39, 26.03 10.14, 26.16 10.89 C26.3 11.64, 26.33 12.8, 26.36 13.18 C26.4 13.56, 26.4 12.8, 26.36 13.18" stroke="#000000" stroke-width="2" fill="none"></path></g><g stroke-linecap="round"><g transform="translate(246.52593753783412 133.1587606518184) rotate(180.90938044919915 4.822058549339033 0.010255818237169478)"><path d="M0 0 C3.16 0.01, 6.31 0.01, 9.64 0.02 M0 0 C2.57 0.01, 5.15 0.01, 9.64 0.02" stroke="#7950f288" stroke-width="2" fill="none"></path></g></g><mask></mask><g stroke-linecap="round"><g transform="translate(251.34982285642036 125.76953687607238) rotate(180.17924328041914 -2.3541945387638634 7.367795283193175)"><path d="M0 0 C-1.35 -0.02, -2.7 -0.03, -4.83 -0.06 M0 0 C-1.14 -0.01, -2.28 -0.03, -4.83 -0.06 M-4.83 -0.06 C-4.82 5.58, -4.81 11.22, -4.8 14.76 M-4.83 -0.06 C-4.82 3.77, -4.82 7.61, -4.8 14.76 M-4.8 14.76 C-3.11 14.77, -1.42 14.78, 0.12 14.8 M-4.8 14.76 C-3.09 14.77, -1.38 14.78, 0.12 14.8" stroke="#7950f288" stroke-width="2" fill="none"></path></g></g><mask></mask><g stroke-linecap="round"><g transform="translate(257.1425513912445 132.05411020388715) rotate(91.24465964669115 0.028931121552318473 1.1230173899976421)"><path d="M0 0 C0.72 0.74, 1.44 1.49, 2.15 2.23 M0 0 C0.61 0.63, 1.21 1.25, 2.15 2.23 M2.15 2.23 C1.72 2.23, 1.28 2.23, 0.02 2.23 M2.15 2.23 C1.43 2.23, 0.72 2.23, 0.02 2.23 M0.02 2.23 C-0.5 2.23, -1.02 2.24, -2.1 2.25 M0.02 2.23 C-0.61 2.24, -1.25 2.24, -2.1 2.25 M-2.1 2.25 C-1.67 1.79, -1.25 1.34, 0 0 M-2.1 2.25 C-1.32 1.41, -0.54 0.58, 0 0" stroke="#7950f288" stroke-width="2" fill="none"></path></g></g><mask></mask><g stroke-linecap="round"><g transform="translate(244.35996726465328 131.9821047109997) rotate(91.24465964669115 0.028931121552318473 1.1230173899976421)"><path d="M0 0 C0.73 0.76, 1.47 1.52, 2.15 2.23 M0 0 C0.81 0.83, 1.61 1.66, 2.15 2.23 M2.15 2.23 C1.36 2.23, 0.56 2.23, 0.02 2.23 M2.15 2.23 C1.59 2.23, 1.02 2.23, 0.02 2.23 M0.02 2.23 C-0.8 2.24, -1.62 2.24, -2.1 2.25 M0.02 2.23 C-0.45 2.23, -0.92 2.24, -2.1 2.25 M-2.1 2.25 C-1.46 1.56, -0.82 0.88, 0 0 M-2.1 2.25 C-1.28 1.37, -0.47 0.5, 0 0" stroke="#7950f288" stroke-width="2" fill="none"></path></g></g><mask></mask><g stroke-linecap="round"><g transform="translate(244.35996726465328 139.4133508693194) rotate(91.24465964669115 0.028931121552318473 1.1230173899976421)"><path d="M0 0 C0.76 0.78, 1.52 1.57, 2.15 2.23 M0 0 C0.68 0.7, 1.35 1.4, 2.15 2.23 M2.15 2.23 C1.68 2.23, 1.21 2.23, 0.02 2.23 M2.15 2.23 C1.67 2.23, 1.19 2.23, 0.02 2.23 M0.02 2.23 C-0.8 2.24, -1.63 2.24, -2.1 2.25 M0.02 2.23 C-0.44 2.23, -0.9 2.24, -2.1 2.25 M-2.1 2.25 C-1.28 1.37, -0.46 0.49, 0 0 M-2.1 2.25 C-1.67 1.79, -1.24 1.33, 0 0" stroke="#7950f288" stroke-width="2" fill="none"></path></g></g><mask></mask><g stroke-linecap="round"><g transform="translate(244.35996726465328 124.55085855267862) rotate(91.24465964669115 0.028931121552318473 1.1230173899976421)"><path d="M0 0 C0.76 0.78, 1.52 1.57, 2.15 2.23 M0 0 C0.76 0.79, 1.52 1.58, 2.15 2.23 M2.15 2.23 C1.69 2.23, 1.22 2.23, 0.02 2.23 M2.15 2.23 C1.53 2.23, 0.91 2.23, 0.02 2.23 M0.02 2.23 C-0.65 2.24, -1.33 2.24, -2.1 2.25 M0.02 2.23 C-0.47 2.23, -0.96 2.24, -2.1 2.25 M-2.1 2.25 C-1.42 1.52, -0.74 0.79, 0 0 M-2.1 2.25 C-1.32 1.41, -0.54 0.58, 0 0" stroke="#7950f288" stroke-width="2" fill="none"></path></g></g><mask></mask><g transform="translate(111.75823974609375 229.5995941162107) rotate(0 53.8203125 9.199999999999989)"><text x="0" y="0" font-family="Helvetica, Segoe UI Emoji" font-size="16px" fill="#000000" text-anchor="start" style="white-space: pre;" direction="ltr" dominant-baseline="text-before-edge">public_subnet0</text></g><g transform="translate(286.4410400390625 83.73754882812455) rotate(0 86.5799331665039 12.5)"><text x="0" y="0" font-family="Virgil, Segoe UI Emoji" font-size="20px" fill="#000000" text-anchor="start" style="white-space: pre;" direction="ltr" dominant-baseline="text-before-edge">Internet gateway</text></g><g stroke-linecap="round" transform="translate(341.9410400390625 10) rotate(0 31.5 31.5)"><path d="M63 31.5 C63 33.32, 62.84 35.17, 62.52 36.97 C62.2 38.77, 61.72 40.56, 61.1 42.27 C60.48 43.99, 59.69 45.67, 58.78 47.25 C57.87 48.83, 56.8 50.35, 55.63 51.75 C54.46 53.14, 53.14 54.46, 51.75 55.63 C50.35 56.8, 48.83 57.87, 47.25 58.78 C45.67 59.69, 43.99 60.48, 42.27 61.1 C40.56 61.72, 38.77 62.2, 36.97 62.52 C35.17 62.84, 33.32 63, 31.5 63 C29.68 63, 27.83 62.84, 26.03 62.52 C24.23 62.2, 22.44 61.72, 20.73 61.1 C19.01 60.48, 17.33 59.69, 15.75 58.78 C14.17 57.87, 12.65 56.8, 11.25 55.63 C9.86 54.46, 8.54 53.14, 7.37 51.75 C6.2 50.35, 5.13 48.83, 4.22 47.25 C3.31 45.67, 2.52 43.99, 1.9 42.27 C1.28 40.56, 0.8 38.77, 0.48 36.97 C0.16 35.17, 0 33.32, 0 31.5 C0 29.68, 0.16 27.83, 0.48 26.03 C0.8 24.23, 1.28 22.44, 1.9 20.73 C2.52 19.01, 3.31 17.33, 4.22 15.75 C5.13 14.17, 6.2 12.65, 7.37 11.25 C8.54 9.86, 9.86 8.54, 11.25 7.37 C12.65 6.2, 14.17 5.13, 15.75 4.22 C17.33 3.31, 19.01 2.52, 20.73 1.9 C22.44 1.28, 24.23 0.8, 26.03 0.48 C27.83 0.16, 29.68 0, 31.5 0 C33.32 0, 35.17 0.16, 36.97 0.48 C38.77 0.8, 40.56 1.28, 42.27 1.9 C43.99 2.52, 45.67 3.31, 47.25 4.22 C48.83 5.13, 50.35 6.2, 51.75 7.37 C53.14 8.54, 54.46 9.86, 55.63 11.25 C56.8 12.65, 57.87 14.17, 58.78 15.75 C59.69 17.33, 60.48 19.01, 61.1 20.73 C61.72 22.44, 62.2 24.23, 62.52 26.03 C62.84 27.83, 62.92 30.59, 63 31.5 C63.08 32.41, 63.08 30.59, 63 31.5" stroke="#000000" stroke-width="2" fill="none"></path></g><g stroke-linecap="round"><g transform="translate(356.0075424569468 60.000634353611076) rotate(0 17.428229695807318 -18.503388798529244)"><path d="M0 0 C0.1 -5.44, -3.21 -26.44, 0.58 -32.66 C4.37 -38.89, 17.01 -37.53, 22.75 -37.33 C28.48 -37.14, 32.86 -37.82, 35 -31.5 C37.14 -25.18, 35.48 -4.76, 35.58 0.58 M0 0 C0.1 -5.44, -3.21 -26.44, 0.58 -32.66 C4.37 -38.89, 17.01 -37.53, 22.75 -37.33 C28.48 -37.14, 32.86 -37.82, 35 -31.5 C37.14 -25.18, 35.48 -4.76, 35.58 0.58" stroke="#7950f288" stroke-width="2" fill="none"></path></g></g><mask></mask><g stroke-linecap="round"><g transform="translate(359.8794494748172 59.780300055012276) rotate(0 13.615804449849463 -16.241187982632212)"><path d="M0 0 C0.08 -4.78, -2.51 -23.21, 0.46 -28.67 C3.42 -34.13, 13.29 -32.94, 17.77 -32.77 C22.25 -32.6, 25.67 -33.19, 27.34 -27.65 C29.01 -22.1, 27.72 -4.18, 27.8 0.51 M0 0 C0.08 -4.78, -2.51 -23.21, 0.46 -28.67 C3.42 -34.13, 13.29 -32.94, 17.77 -32.77 C22.25 -32.6, 25.67 -33.19, 27.34 -27.65 C29.01 -22.1, 27.72 -4.18, 27.8 0.51" stroke="#7950f288" stroke-width="2" fill="none"></path></g></g><mask></mask><g stroke-linecap="round"><g transform="translate(388.263712702229 60.583928571428714) rotate(0 1.1665884356341394 0)"><path d="M0 0 C0.39 0, 1.94 0, 2.33 0 M0 0 C0.39 0, 1.94 0, 2.33 0" stroke="#7950f288" stroke-width="2" fill="none"></path></g></g><mask></mask><g stroke-linecap="round"><g transform="translate(357.2907897361438 59.65065782292163) rotate(0 1.1665884356341394 0)"><path d="M0 0 C0.39 0, 1.94 0, 2.33 0 M0 0 C0.39 0, 1.94 0, 2.33 0" stroke="#7950f288" stroke-width="2" fill="none"></path></g></g><mask></mask><g stroke-linecap="round" transform="translate(433.3670654296875 139.59657287597634) rotate(0 123.7139892578125 56.34385681152344)"><path d="M28.17 0 M28.17 0 C93.38 0.98, 158.16 -0.69, 219.26 0 M28.17 0 C101.67 1.66, 176.42 1.85, 219.26 0 M219.26 0 C239.01 -0.54, 248.13 8.47, 247.43 28.17 M219.26 0 C237.91 -1.95, 248.82 8.03, 247.43 28.17 M247.43 28.17 C245.3 48.3, 248.83 72.19, 247.43 84.52 M247.43 28.17 C248.5 40.69, 246.95 53.96, 247.43 84.52 M247.43 84.52 C247.5 105.02, 239.59 111.12, 219.26 112.69 M247.43 84.52 C245.43 102.96, 237.71 111.05, 219.26 112.69 M219.26 112.69 C163.29 112.07, 109.24 115.06, 28.17 112.69 M219.26 112.69 C159.31 111.79, 100.2 111.23, 28.17 112.69 M28.17 112.69 C9.2 113.98, 0.03 103.17, 0 84.52 M28.17 112.69 C9.93 112.14, -0.59 102.75, 0 84.52 M0 84.52 C0.12 68.89, -1.56 50.34, 0 28.17 M0 84.52 C-0.48 69.26, -0.43 53.08, 0 28.17 M0 28.17 C0.76 11.19, 10.61 1.48, 28.17 0 M0 28.17 C0.85 10.01, 7.8 1.75, 28.17 0" stroke="#000000" stroke-width="1" fill="none"></path></g><g transform="translate(458.2291564941406 148.3712710613434) rotate(0 27.70917510986328 5.231074369230413)"><text x="0" y="0" font-family="Virgil, Segoe UI Emoji" font-size="8.369718990768675px" fill="#000000" text-anchor="start" style="white-space: pre;" direction="ltr" dominant-baseline="text-before-edge">NAT gateway</text></g><g stroke-linecap="round" transform="translate(473.0854077027552 118.67961120605469) rotate(0 13.18230741046068 13.182307410460652)"><path d="M26.36 13.18 C26.36 13.95, 26.3 14.72, 26.16 15.47 C26.03 16.22, 25.83 16.97, 25.57 17.69 C25.31 18.41, 24.98 19.11, 24.6 19.77 C24.22 20.43, 23.77 21.07, 23.28 21.66 C22.79 22.24, 22.24 22.79, 21.66 23.28 C21.07 23.77, 20.43 24.22, 19.77 24.6 C19.11 24.98, 18.41 25.31, 17.69 25.57 C16.97 25.83, 16.22 26.03, 15.47 26.16 C14.72 26.3, 13.95 26.36, 13.18 26.36 C12.42 26.36, 11.64 26.3, 10.89 26.16 C10.14 26.03, 9.39 25.83, 8.67 25.57 C7.96 25.31, 7.25 24.98, 6.59 24.6 C5.93 24.22, 5.29 23.77, 4.71 23.28 C4.12 22.79, 3.57 22.24, 3.08 21.66 C2.59 21.07, 2.15 20.43, 1.77 19.77 C1.38 19.11, 1.06 18.41, 0.79 17.69 C0.53 16.97, 0.33 16.22, 0.2 15.47 C0.07 14.72, 0 13.95, 0 13.18 C0 12.42, 0.07 11.64, 0.2 10.89 C0.33 10.14, 0.53 9.39, 0.79 8.67 C1.06 7.96, 1.38 7.25, 1.77 6.59 C2.15 5.93, 2.59 5.29, 3.08 4.71 C3.57 4.12, 4.12 3.57, 4.71 3.08 C5.29 2.59, 5.93 2.15, 6.59 1.77 C7.25 1.38, 7.96 1.06, 8.67 0.79 C9.39 0.53, 10.14 0.33, 10.89 0.2 C11.64 0.07, 12.42 0, 13.18 0 C13.95 0, 14.72 0.07, 15.47 0.2 C16.22 0.33, 16.97 0.53, 17.69 0.79 C18.41 1.06, 19.11 1.38, 19.77 1.77 C20.43 2.15, 21.07 2.59, 21.66 3.08 C22.24 3.57, 22.79 4.12, 23.28 4.71 C23.77 5.29, 24.22 5.93, 24.6 6.59 C24.98 7.25, 25.31 7.96, 25.57 8.67 C25.83 9.39, 26.03 10.14, 26.16 10.89 C26.3 11.64, 26.33 12.8, 26.36 13.18 C26.4 13.56, 26.4 12.8, 26.36 13.18" stroke="#000000" stroke-width="2" fill="none"></path></g><g stroke-linecap="round"><g transform="translate(483.914823035881 132.15653286861533) rotate(180.90938044919915 4.822058549338976 0.010255818237169478)"><path d="M0 0 C2.44 0.01, 4.89 0.01, 9.64 0.02 M0 0 C2.45 0.01, 4.89 0.01, 9.64 0.02" stroke="#7950f288" stroke-width="2" fill="none"></path></g></g><mask></mask><g stroke-linecap="round"><g transform="translate(488.73870835446724 124.76730909286931) rotate(180.17924328041914 -2.3541945387638634 7.367795283193175)"><path d="M0 0 C-1.02 -0.01, -2.05 -0.03, -4.83 -0.06 M0 0 C-1.04 -0.01, -2.08 -0.03, -4.83 -0.06 M-4.83 -0.06 C-4.82 5.58, -4.81 11.22, -4.8 14.76 M-4.83 -0.06 C-4.82 4.17, -4.81 8.4, -4.8 14.76 M-4.8 14.76 C-3.55 14.77, -2.29 14.78, 0.12 14.8 M-4.8 14.76 C-3.44 14.77, -2.08 14.78, 0.12 14.8" stroke="#7950f288" stroke-width="2" fill="none"></path></g></g><mask></mask><g stroke-linecap="round"><g transform="translate(494.5314368892914 131.05188242068408) rotate(91.24465964669115 0.028931121552318473 1.1230173899976421)"><path d="M0 0 C0.49 0.51, 0.98 1.01, 2.15 2.23 M0 0 C0.52 0.54, 1.04 1.07, 2.15 2.23 M2.15 2.23 C1.38 2.23, 0.61 2.23, 0.02 2.23 M2.15 2.23 C1.67 2.23, 1.18 2.23, 0.02 2.23 M0.02 2.23 C-0.6 2.24, -1.22 2.24, -2.1 2.25 M0.02 2.23 C-0.56 2.24, -1.15 2.24, -2.1 2.25 M-2.1 2.25 C-1.45 1.56, -0.81 0.87, 0 0 M-2.1 2.25 C-1.31 1.4, -0.52 0.56, 0 0" stroke="#7950f288" stroke-width="2" fill="none"></path></g></g><mask></mask><g stroke-linecap="round"><g transform="translate(481.74885276270015 130.97987692779662) rotate(91.24465964669115 0.028931121552318473 1.1230173899976421)"><path d="M0 0 C0.6 0.62, 1.21 1.25, 2.15 2.23 M0 0 C0.49 0.51, 0.99 1.02, 2.15 2.23 M2.15 2.23 C1.71 2.23, 1.27 2.23, 0.02 2.23 M2.15 2.23 C1.39 2.23, 0.63 2.23, 0.02 2.23 M0.02 2.23 C-0.76 2.24, -1.55 2.24, -2.1 2.25 M0.02 2.23 C-0.52 2.23, -1.06 2.24, -2.1 2.25 M-2.1 2.25 C-1.44 1.55, -0.79 0.84, 0 0 M-2.1 2.25 C-1.5 1.61, -0.91 0.97, 0 0" stroke="#7950f288" stroke-width="2" fill="none"></path></g></g><mask></mask><g stroke-linecap="round"><g transform="translate(481.74885276270015 138.41112308611633) rotate(91.24465964669115 0.028931121552318473 1.1230173899976421)"><path d="M0 0 C0.75 0.78, 1.5 1.55, 2.15 2.23 M0 0 C0.46 0.48, 0.92 0.95, 2.15 2.23 M2.15 2.23 C1.51 2.23, 0.86 2.23, 0.02 2.23 M2.15 2.23 C1.61 2.23, 1.07 2.23, 0.02 2.23 M0.02 2.23 C-0.59 2.24, -1.21 2.24, -2.1 2.25 M0.02 2.23 C-0.6 2.24, -1.22 2.24, -2.1 2.25 M-2.1 2.25 C-1.39 1.49, -0.68 0.73, 0 0 M-2.1 2.25 C-1.52 1.63, -0.95 1.02, 0 0" stroke="#7950f288" stroke-width="2" fill="none"></path></g></g><mask></mask><g stroke-linecap="round"><g transform="translate(481.74885276270015 123.54863076947555) rotate(91.24465964669115 0.028931121552318473 1.1230173899976421)"><path d="M0 0 C0.72 0.75, 1.44 1.49, 2.15 2.23 M0 0 C0.84 0.87, 1.68 1.74, 2.15 2.23 M2.15 2.23 C1.35 2.23, 0.55 2.23, 0.02 2.23 M2.15 2.23 C1.5 2.23, 0.85 2.23, 0.02 2.23 M0.02 2.23 C-0.62 2.24, -1.26 2.24, -2.1 2.25 M0.02 2.23 C-0.42 2.23, -0.86 2.24, -2.1 2.25 M-2.1 2.25 C-1.34 1.44, -0.58 0.63, 0 0 M-2.1 2.25 C-1.37 1.47, -0.65 0.7, 0 0" stroke="#7950f288" stroke-width="2" fill="none"></path></g></g><mask></mask><g transform="translate(479.9953308105469 228.93205261230446) rotate(0 53.8203125 9.199999999999989)"><text x="0" y="0" font-family="Helvetica, Segoe UI Emoji" font-size="16px" fill="#000000" text-anchor="start" style="white-space: pre;" direction="ltr" dominant-baseline="text-before-edge">public_subnet1</text></g><g stroke-linecap="round" transform="translate(433.8253173828125 273.84669494628884) rotate(0 123.7139892578125 56.34385681152344)"><path d="M28.17 0 M28.17 0 C92.49 -2.24, 157.05 -0.33, 219.26 0 M28.17 0 C87.81 -0.53, 148.12 0.7, 219.26 0 M219.26 0 C238.68 -0.06, 246.26 10.17, 247.43 28.17 M219.26 0 C240.04 0.54, 248.55 9.17, 247.43 28.17 M247.43 28.17 C248.56 40.81, 245.36 54.03, 247.43 84.52 M247.43 28.17 C247.5 41.92, 247.2 54.37, 247.43 84.52 M247.43 84.52 C248.67 101.57, 236.17 110.83, 219.26 112.69 M247.43 84.52 C249.36 102.27, 237.56 110.63, 219.26 112.69 M219.26 112.69 C171.47 110.63, 126.07 112.69, 28.17 112.69 M219.26 112.69 C178.16 113.88, 135.72 113.26, 28.17 112.69 M28.17 112.69 C7.71 112.3, -1.31 102.88, 0 84.52 M28.17 112.69 C8.74 114.86, -0.83 103.17, 0 84.52 M0 84.52 C1.33 72.04, -0.04 57.2, 0 28.17 M0 84.52 C0.4 68.24, 0.31 52.09, 0 28.17 M0 28.17 C1.18 8.37, 8.38 -1.46, 28.17 0 M0 28.17 C1.12 8.67, 11.51 1.37, 28.17 0" stroke="#000000" stroke-width="1" fill="none"></path></g><g transform="translate(477.1575622558594 357.6530609130857) rotate(0 56.9296875 9.199999999999989)"><text x="0" y="0" font-family="Helvetica, Segoe UI Emoji" font-size="16px" fill="#000000" text-anchor="start" style="white-space: pre;" direction="ltr" dominant-baseline="text-before-edge">private_subnet1</text></g><g stroke-linecap="round" transform="translate(67.169677734375 273.98258972167946) rotate(0 123.7139892578125 56.34385681152344)"><path d="M28.17 0 M28.17 0 C99.5 1.42, 172.54 1.83, 219.26 0 M28.17 0 C91.88 -0.11, 154.86 1.3, 219.26 0 M219.26 0 C237.22 -0.31, 247.57 9.1, 247.43 28.17 M219.26 0 C238.15 0.1, 249.28 10.76, 247.43 28.17 M247.43 28.17 C249.42 50.06, 249.19 67.47, 247.43 84.52 M247.43 28.17 C247.86 49.53, 247.43 72.74, 247.43 84.52 M247.43 84.52 C248.84 103.06, 237.84 112.05, 219.26 112.69 M247.43 84.52 C248.31 101.78, 238.39 113.6, 219.26 112.69 M219.26 112.69 C172.96 112.83, 129.84 111.82, 28.17 112.69 M219.26 112.69 C170.85 112.08, 122.44 113.43, 28.17 112.69 M28.17 112.69 C7.96 113.84, 1.49 104.39, 0 84.52 M28.17 112.69 C10.11 113.56, -0.59 104.31, 0 84.52 M0 84.52 C-1.94 63.06, -1.35 40.13, 0 28.17 M0 84.52 C-1.05 64.04, -0.56 42.27, 0 28.17 M0 28.17 C-1.57 10.39, 8.48 0.83, 28.17 0 M0 28.17 C0.41 8.66, 10.88 -0.08, 28.17 0" stroke="#000000" stroke-width="1" fill="none"></path></g><g transform="translate(110.50192260742188 357.78895568847634) rotate(0 56.9296875 9.199999999999989)"><text x="0" y="0" font-family="Helvetica, Segoe UI Emoji" font-size="16px" fill="#000000" text-anchor="start" style="white-space: pre;" direction="ltr" dominant-baseline="text-before-edge">private_subnet0</text></g><g stroke-linecap="round" transform="translate(94.23934936523438 287.0489807128904) rotate(0 284.1068420410156 24.68487548828125)"><path d="M12.34 0 M12.34 0 C179.37 0.44, 346.76 0, 555.87 0 M555.87 0 C562.48 0.74, 566.73 4.78, 568.21 12.34 M568.21 12.34 C570 21.86, 568.5 31.75, 568.21 37.03 M568.21 37.03 C567.02 46.3, 563.84 50.31, 555.87 49.37 M555.87 49.37 C356.3 50.49, 156.54 50.45, 12.34 49.37 M12.34 49.37 C5.11 49.06, 0.53 45.66, 0 37.03 M0 37.03 C-1.73 28.85, -1.3 24.98, 0 12.34 M0 12.34 C-1.11 3.12, 3.1 1.43, 12.34 0" stroke="#5c940d" stroke-width="1.5" fill="none" stroke-dasharray="8 9"></path></g><g transform="translate(109.48153686523438 302.0013732910154) rotate(0 71.16796875 9.199999999999989)"><text x="0" y="0" font-family="Helvetica, Segoe UI Emoji" font-size="16px" fill="#5c940d" text-anchor="start" style="white-space: pre;" direction="ltr" dominant-baseline="text-before-edge">private_node_group</text></g><g stroke-linecap="round" transform="translate(94.77395629882812 170.91723632812477) rotate(0 284.1068420410156 24.68487548828125)"><path d="M12.34 0 M12.34 0 C149.09 0.93, 286.87 0.67, 555.87 0 M555.87 0 C565.96 -1.71, 568.53 3.14, 568.21 12.34 M568.21 12.34 C568.81 17.95, 566.22 24.38, 568.21 37.03 M568.21 37.03 C570.18 44.25, 563.36 48.78, 555.87 49.37 M555.87 49.37 C385.62 48.2, 215.15 49.38, 12.34 49.37 M12.34 49.37 C3.25 48.17, 0.46 44.98, 0 37.03 M0 37.03 C0.5 27.73, -0.54 20.73, 0 12.34 M0 12.34 C-1.06 3.97, 5.99 -0.31, 12.34 0" stroke="#5c940d" stroke-width="1.5" fill="none" stroke-dasharray="8 9"></path></g><g transform="translate(110.01620483398438 185.86962890624977) rotate(0 68.05859375 9.199999999999989)"><text x="0" y="0" font-family="Helvetica, Segoe UI Emoji" font-size="16px" fill="#5c940d" text-anchor="start" style="white-space: pre;" direction="ltr" dominant-baseline="text-before-edge">public_node_group</text></g><g stroke-linecap="round" transform="translate(449.8626245011153 186.74225591216953) rotate(0 14.455765391462819 14.441922633231172)"><path d="M0 0 C0 0, 0 0, 0 0 M0 0 C0 0, 0 0, 0 0 M0.13 12.04 C3.39 8.3, 6.64 4.55, 10.63 -0.03 M0.13 12.04 C3.31 8.38, 6.5 4.72, 10.63 -0.03 M0.27 24.08 C6.82 16.55, 13.36 9.01, 21.26 -0.07 M0.27 24.08 C7.97 15.22, 15.67 6.36, 21.26 -0.07 M3.68 32.35 C10.06 25.01, 16.44 17.67, 30.58 1.41 M3.68 32.35 C12.28 22.46, 20.88 12.56, 30.58 1.41 M14.31 32.31 C18.85 27.09, 23.4 21.86, 30.71 13.45 M14.31 32.31 C19.99 25.78, 25.67 19.24, 30.71 13.45 M24.94 32.28 C27 29.91, 29.05 27.55, 30.84 25.49 M24.94 32.28 C26.5 30.49, 28.05 28.7, 30.84 25.49 M0.04 28.92 C0.04 28.92, 0.04 28.92, 0.04 28.92 M0.04 28.92 C0.04 28.92, 0.04 28.92, 0.04 28.92 M12.08 28.78 C8.01 25.25, 3.94 21.71, 0 18.29 M12.08 28.78 C9.16 26.25, 6.24 23.71, 0 18.29 M24.12 28.65 C15.65 21.29, 7.18 13.93, -0.03 7.66 M24.12 28.65 C16.58 22.09, 9.03 15.54, -0.03 7.66 M32.39 25.24 C25.96 19.65, 19.54 14.07, 1.44 -1.66 M32.39 25.24 C20.8 15.16, 9.2 5.08, 1.44 -1.66 M32.35 14.61 C25.87 8.98, 19.4 3.34, 13.48 -1.79 M32.35 14.61 C27.35 10.25, 22.34 5.9, 13.48 -1.79 M32.32 3.98 C29.77 1.76, 27.21 -0.46, 25.53 -1.93 M32.32 3.98 C30.3 2.22, 28.28 0.47, 25.53 -1.93" stroke="#fd7e1488" stroke-width="1" fill="none"></path><path d="M0 0 C10.94 0, 21.87 0, 28.91 0 M0 0 C8.31 0, 16.61 0, 28.91 0 M28.91 0 C28.91 11.2, 28.91 22.39, 28.91 28.88 M28.91 0 C28.91 8.52, 28.91 17.04, 28.91 28.88 M28.91 28.88 C18.16 28.88, 7.41 28.88, 0 28.88 M28.91 28.88 C20.86 28.88, 12.81 28.88, 0 28.88 M0 28.88 C0 20.68, 0 12.47, 0 0 M0 28.88 C0 22.5, 0 16.11, 0 0" stroke="#000000" stroke-width="2" fill="none"></path></g><g stroke-linecap="round" transform="translate(459.6339413749615 196.2534691209027) rotate(0 4.740084502904779 4.841637138277946)"><path d="M0 0 C2.88 0, 5.75 0, 9.48 0 M0 0 C3.65 0, 7.31 0, 9.48 0 M9.48 0 C9.48 3.46, 9.48 6.92, 9.48 9.68 M9.48 0 C9.48 2.2, 9.48 4.39, 9.48 9.68 M9.48 9.68 C6.56 9.68, 3.63 9.68, 0 9.68 M9.48 9.68 C7.11 9.68, 4.74 9.68, 0 9.68 M0 9.68 C0 6.2, 0 2.71, 0 0 M0 9.68 C0 6.65, 0 3.62, 0 0" stroke="#000000" stroke-width="2" fill="none"></path></g><g stroke-linecap="round"><g transform="translate(464.60339075486536 204.3276292185691) rotate(270.82800827175043 -4.751399841722218 0.9728004411154245)"><path d="M0 0 C0.01 -0.96, 0.01 -1.92, 0.02 -3.74 M0 0 C0.01 -1.1, 0.01 -2.19, 0.02 -3.74 M0.02 -3.74 C-2.47 -3.76, -4.97 -3.77, -9.49 -3.81 M0.02 -3.74 C-1.92 -3.75, -3.87 -3.77, -9.49 -3.81 M-9.49 -3.81 C-9.5 -1.7, -9.51 0.41, -9.53 5.65 M-9.49 -3.81 C-9.51 -0.6, -9.52 2.61, -9.53 5.65 M-9.53 5.65 C-8.7 5.68, -7.87 5.7, -5.82 5.76 M-9.53 5.65 C-8.61 5.68, -7.7 5.7, -5.82 5.76" stroke="#000" stroke-width="2" fill="none"></path></g></g><mask></mask><g stroke-linecap="round"><g transform="translate(472.91404800941064 195.90901373333742) rotate(88.83086067209321 -4.7513998417221615 0.9728004411154245)"><path d="M0 0 C0.01 -0.85, 0.01 -1.7, 0.02 -3.74 M0 0 C0.01 -1.2, 0.02 -2.4, 0.02 -3.74 M0.02 -3.74 C-2.43 -3.76, -4.89 -3.77, -9.49 -3.81 M0.02 -3.74 C-2.67 -3.76, -5.37 -3.78, -9.49 -3.81 M-9.49 -3.81 C-9.51 -0.61, -9.52 2.58, -9.53 5.65 M-9.49 -3.81 C-9.51 -0.07, -9.52 3.66, -9.53 5.65 M-9.53 5.65 C-8.15 5.69, -6.78 5.73, -5.82 5.76 M-9.53 5.65 C-8.75 5.68, -7.98 5.7, -5.82 5.76" stroke="#000" stroke-width="2" fill="none"></path></g></g><mask></mask><g transform="translate(454.8996605623297 217.4690798390327) rotate(0 9.104537963867188 5.6063865061003355)"><text x="0" y="0" font-family="Virgil, Segoe UI Emoji" font-size="8.970218409760518px" fill="#000000" text-anchor="start" style="white-space: pre;" direction="ltr" dominant-baseline="text-before-edge">EC2</text></g><g stroke-linecap="round" transform="translate(272.7126916397872 179.8706251144522) rotate(0 14.455765391462876 14.441922633231172)"><path d="M0 0 C0 0, 0 0, 0 0 M0 0 C0 0, 0 0, 0 0 M0.13 12.04 C4.32 7.22, 8.51 2.41, 10.63 -0.03 M0.13 12.04 C3.27 8.43, 6.41 4.82, 10.63 -0.03 M0.27 24.08 C8.29 14.85, 16.32 5.62, 21.26 -0.07 M0.27 24.08 C6.02 17.47, 11.76 10.86, 21.26 -0.07 M3.68 32.35 C12.9 21.75, 22.11 11.14, 30.58 1.41 M3.68 32.35 C14.35 20.07, 25.02 7.79, 30.58 1.41 M14.31 32.31 C20.12 25.63, 25.93 18.94, 30.71 13.45 M14.31 32.31 C20.35 25.37, 26.39 18.42, 30.71 13.45 M24.94 32.28 C26.72 30.23, 28.5 28.18, 30.84 25.49 M24.94 32.28 C26.39 30.61, 27.85 28.94, 30.84 25.49 M0.04 28.92 C0.04 28.92, 0.04 28.92, 0.04 28.92 M0.04 28.92 C0.04 28.92, 0.04 28.92, 0.04 28.92 M12.08 28.78 C9.22 26.3, 6.36 23.82, 0 18.29 M12.08 28.78 C7.34 24.67, 2.61 20.55, 0 18.29 M24.12 28.65 C15.42 21.09, 6.73 13.53, -0.03 7.66 M24.12 28.65 C14.59 20.37, 5.06 12.08, -0.03 7.66 M32.39 25.24 C20.87 15.23, 9.36 5.22, 1.44 -1.66 M32.39 25.24 C20.3 14.73, 8.2 4.21, 1.44 -1.66 M32.35 14.61 C25.41 8.57, 18.46 2.53, 13.48 -1.79 M32.35 14.61 C26.44 9.46, 20.52 4.32, 13.48 -1.79 M32.32 3.98 C30.3 2.22, 28.28 0.47, 25.53 -1.93 M32.32 3.98 C30.22 2.15, 28.12 0.33, 25.53 -1.93" stroke="#fd7e1488" stroke-width="1" fill="none"></path><path d="M0 0 C6.87 0, 13.75 0, 28.91 0 M0 0 C6.39 0, 12.79 0, 28.91 0 M28.91 0 C28.91 6.77, 28.91 13.55, 28.91 28.88 M28.91 0 C28.91 6.67, 28.91 13.34, 28.91 28.88 M28.91 28.88 C22.58 28.88, 16.25 28.88, 0 28.88 M28.91 28.88 C18.47 28.88, 8.03 28.88, 0 28.88 M0 28.88 C0 20.98, 0 13.08, 0 0 M0 28.88 C0 19.7, 0 10.51, 0 0" stroke="#000000" stroke-width="2" fill="none"></path></g><g stroke-linecap="round" transform="translate(282.48400851363317 189.38183832318543) rotate(0 4.7400845029048355 4.841637138277946)"><path d="M0 0 C3.72 0, 7.44 0, 9.48 0 M0 0 C2.68 0, 5.36 0, 9.48 0 M9.48 0 C9.48 3.85, 9.48 7.7, 9.48 9.68 M9.48 0 C9.48 2.45, 9.48 4.9, 9.48 9.68 M9.48 9.68 C6.82 9.68, 4.15 9.68, 0 9.68 M9.48 9.68 C7.56 9.68, 5.65 9.68, 0 9.68 M0 9.68 C0 7.42, 0 5.16, 0 0 M0 9.68 C0 6.02, 0 2.35, 0 0" stroke="#000000" stroke-width="2" fill="none"></path></g><g stroke-linecap="round"><g transform="translate(287.45345789353746 197.45599842085176) rotate(270.82800827175043 -4.751399841722218 0.9728004411154245)"><path d="M0 0 C0.01 -1.3, 0.02 -2.59, 0.02 -3.74 M0 0 C0.01 -0.98, 0.01 -1.97, 0.02 -3.74 M0.02 -3.74 C-1.99 -3.75, -4.01 -3.77, -9.49 -3.81 M0.02 -3.74 C-3.14 -3.76, -6.31 -3.79, -9.49 -3.81 M-9.49 -3.81 C-9.51 -0.17, -9.52 3.47, -9.53 5.65 M-9.49 -3.81 C-9.5 -1.41, -9.51 0.99, -9.53 5.65 M-9.53 5.65 C-8.49 5.68, -7.45 5.71, -5.82 5.76 M-9.53 5.65 C-8.59 5.68, -7.66 5.71, -5.82 5.76" stroke="#000" stroke-width="2" fill="none"></path></g></g><mask></mask><g stroke-linecap="round"><g transform="translate(295.7641151480823 189.03738293562003) rotate(88.83086067209321 -4.751399841722218 0.9728004411154245)"><path d="M0 0 C0.01 -1.29, 0.02 -2.58, 0.02 -3.74 M0 0 C0.01 -1.19, 0.02 -2.37, 0.02 -3.74 M0.02 -3.74 C-3.55 -3.76, -7.13 -3.79, -9.49 -3.81 M0.02 -3.74 C-2.18 -3.75, -4.39 -3.77, -9.49 -3.81 M-9.49 -3.81 C-9.5 -1.63, -9.51 0.54, -9.53 5.65 M-9.49 -3.81 C-9.51 -0.12, -9.52 3.56, -9.53 5.65 M-9.53 5.65 C-8.18 5.69, -6.83 5.73, -5.82 5.76 M-9.53 5.65 C-8.31 5.69, -7.09 5.72, -5.82 5.76" stroke="#000" stroke-width="2" fill="none"></path></g></g><mask></mask><g transform="translate(277.7497277010018 210.59744904131537) rotate(0 9.104537963867188 5.6063865061003355)"><text x="0" y="0" font-family="Virgil, Segoe UI Emoji" font-size="8.970218409760518px" fill="#000000" text-anchor="start" style="white-space: pre;" direction="ltr" dominant-baseline="text-before-edge">EC2</text></g><g stroke-linecap="round" transform="translate(274.33274779213093 297.11836681367095) rotate(0 14.455765391462876 14.441922633231172)"><path d="M0 0 C0 0, 0 0, 0 0 M0 0 C0 0, 0 0, 0 0 M0.13 12.04 C3.11 8.61, 6.1 5.18, 10.63 -0.03 M0.13 12.04 C3.07 8.66, 6 5.29, 10.63 -0.03 M0.27 24.08 C4.77 18.9, 9.28 13.71, 21.26 -0.07 M0.27 24.08 C8.64 14.45, 17.01 4.82, 21.26 -0.07 M3.68 32.35 C10.19 24.86, 16.7 17.37, 30.58 1.41 M3.68 32.35 C13.29 21.3, 22.9 10.24, 30.58 1.41 M14.31 32.31 C19.49 26.35, 24.67 20.39, 30.71 13.45 M14.31 32.31 C18.12 27.93, 21.93 23.55, 30.71 13.45 M24.94 32.28 C26.62 30.35, 28.29 28.42, 30.84 25.49 M24.94 32.28 C26.19 30.84, 27.44 29.41, 30.84 25.49 M0.04 28.92 C0.04 28.92, 0.04 28.92, 0.04 28.92 M0.04 28.92 C0.04 28.92, 0.04 28.92, 0.04 28.92 M12.08 28.78 C9.21 26.29, 6.34 23.8, 0 18.29 M12.08 28.78 C9.33 26.39, 6.58 24, 0 18.29 M24.12 28.65 C15.91 21.51, 7.69 14.37, -0.03 7.66 M24.12 28.65 C16.71 22.21, 9.29 15.76, -0.03 7.66 M32.39 25.24 C20.31 14.74, 8.23 4.24, 1.44 -1.66 M32.39 25.24 C24.47 18.35, 16.55 11.47, 1.44 -1.66 M32.35 14.61 C26.42 9.45, 20.49 4.3, 13.48 -1.79 M32.35 14.61 C25.32 8.49, 18.28 2.38, 13.48 -1.79 M32.32 3.98 C29.66 1.66, 27 -0.65, 25.53 -1.93 M32.32 3.98 C30.21 2.15, 28.11 0.32, 25.53 -1.93" stroke="#fd7e1488" stroke-width="1" fill="none"></path><path d="M0 0 C10.87 0, 21.75 0, 28.91 0 M0 0 C7.62 0, 15.23 0, 28.91 0 M28.91 0 C28.91 6.24, 28.91 12.48, 28.91 28.88 M28.91 0 C28.91 6.7, 28.91 13.39, 28.91 28.88 M28.91 28.88 C20.6 28.88, 12.28 28.88, 0 28.88 M28.91 28.88 C19.24 28.88, 9.57 28.88, 0 28.88 M0 28.88 C0 18.95, 0 9.02, 0 0 M0 28.88 C0 18.57, 0 8.26, 0 0" stroke="#000000" stroke-width="2" fill="none"></path></g><g stroke-linecap="round" transform="translate(284.1040646659769 306.6295800224042) rotate(0 4.7400845029048355 4.841637138277946)"><path d="M0 0 C2.59 0, 5.18 0, 9.48 0 M0 0 C3.37 0, 6.75 0, 9.48 0 M9.48 0 C9.48 2.38, 9.48 4.76, 9.48 9.68 M9.48 0 C9.48 2.52, 9.48 5.04, 9.48 9.68 M9.48 9.68 C5.84 9.68, 2.2 9.68, 0 9.68 M9.48 9.68 C6.65 9.68, 3.83 9.68, 0 9.68 M0 9.68 C0 6.73, 0 3.78, 0 0 M0 9.68 C0 7.12, 0 4.55, 0 0" stroke="#000000" stroke-width="2" fill="none"></path></g><g stroke-linecap="round"><g transform="translate(289.0735140458812 314.7037401200705) rotate(270.82800827175043 -4.751399841722218 0.9728004411154245)"><path d="M0 0 C0.01 -1.37, 0.02 -2.74, 0.02 -3.74 M0 0 C0.01 -1.09, 0.01 -2.19, 0.02 -3.74 M0.02 -3.74 C-2.35 -3.75, -4.73 -3.77, -9.49 -3.81 M0.02 -3.74 C-2.94 -3.76, -5.91 -3.78, -9.49 -3.81 M-9.49 -3.81 C-9.5 -1.79, -9.51 0.23, -9.53 5.65 M-9.49 -3.81 C-9.5 -0.93, -9.51 1.94, -9.53 5.65 M-9.53 5.65 C-8.51 5.68, -7.49 5.71, -5.82 5.76 M-9.53 5.65 C-8.09 5.69, -6.65 5.73, -5.82 5.76" stroke="#000" stroke-width="2" fill="none"></path></g></g><mask></mask><g stroke-linecap="round"><g transform="translate(297.38417130042603 306.2851246348388) rotate(88.83086067209321 -4.751399841722218 0.9728004411154245)"><path d="M0 0 C0.01 -1.38, 0.02 -2.75, 0.02 -3.74 M0 0 C0.01 -1.13, 0.01 -2.25, 0.02 -3.74 M0.02 -3.74 C-2.32 -3.75, -4.66 -3.77, -9.49 -3.81 M0.02 -3.74 C-3.5 -3.76, -7.02 -3.79, -9.49 -3.81 M-9.49 -3.81 C-9.5 -0.93, -9.51 1.95, -9.53 5.65 M-9.49 -3.81 C-9.5 -1.57, -9.51 0.67, -9.53 5.65 M-9.53 5.65 C-8.07 5.69, -6.62 5.73, -5.82 5.76 M-9.53 5.65 C-8.19 5.69, -6.86 5.73, -5.82 5.76" stroke="#000" stroke-width="2" fill="none"></path></g></g><mask></mask><g transform="translate(279.36978385334555 327.8451907405341) rotate(0 9.104537963867188 5.6063865061003355)"><text x="0" y="0" font-family="Virgil, Segoe UI Emoji" font-size="8.970218409760518px" fill="#000000" text-anchor="start" style="white-space: pre;" direction="ltr" dominant-baseline="text-before-edge">EC2</text></g><g stroke-linecap="round" transform="translate(448.3838342179122 301.56724987031157) rotate(0 14.455765391462819 14.441922633231172)"><path d="M0 0 C0 0, 0 0, 0 0 M0 0 C0 0, 0 0, 0 0 M0.13 12.04 C3.48 8.19, 6.84 4.33, 10.63 -0.03 M0.13 12.04 C4.18 7.39, 8.23 2.73, 10.63 -0.03 M0.27 24.08 C7.37 15.91, 14.47 7.75, 21.26 -0.07 M0.27 24.08 C8.27 14.88, 16.27 5.67, 21.26 -0.07 M3.68 32.35 C9.21 25.99, 14.74 19.63, 30.58 1.41 M3.68 32.35 C11.78 23.03, 19.88 13.71, 30.58 1.41 M14.31 32.31 C18.9 27.04, 23.48 21.76, 30.71 13.45 M14.31 32.31 C20.67 24.99, 27.04 17.67, 30.71 13.45 M24.94 32.28 C27.27 29.6, 29.6 26.92, 30.84 25.49 M24.94 32.28 C27.1 29.79, 29.27 27.3, 30.84 25.49 M0.04 28.92 C0.04 28.92, 0.04 28.92, 0.04 28.92 M0.04 28.92 C0.04 28.92, 0.04 28.92, 0.04 28.92 M12.08 28.78 C8.26 25.46, 4.43 22.14, 0 18.29 M12.08 28.78 C7.85 25.11, 3.62 21.43, 0 18.29 M24.12 28.65 C19.17 24.35, 14.21 20.04, -0.03 7.66 M24.12 28.65 C18.54 23.8, 12.96 18.95, -0.03 7.66 M32.39 25.24 C22.65 16.77, 12.92 8.31, 1.44 -1.66 M32.39 25.24 C25.09 18.89, 17.79 12.55, 1.44 -1.66 M32.35 14.61 C25.78 8.89, 19.21 3.18, 13.48 -1.79 M32.35 14.61 C25.58 8.72, 18.81 2.83, 13.48 -1.79 M32.32 3.98 C30 1.96, 27.68 -0.05, 25.53 -1.93 M32.32 3.98 C30.14 2.08, 27.96 0.19, 25.53 -1.93" stroke="#fd7e1488" stroke-width="1" fill="none"></path><path d="M0 0 C6.49 0, 12.99 0, 28.91 0 M0 0 C9.09 0, 18.19 0, 28.91 0 M28.91 0 C28.91 8.21, 28.91 16.42, 28.91 28.88 M28.91 0 C28.91 11.42, 28.91 22.84, 28.91 28.88 M28.91 28.88 C21.47 28.88, 14.02 28.88, 0 28.88 M28.91 28.88 C18.85 28.88, 8.78 28.88, 0 28.88 M0 28.88 C0 19.78, 0 10.68, 0 0 M0 28.88 C0 18.37, 0 7.86, 0 0" stroke="#000000" stroke-width="2" fill="none"></path></g><g stroke-linecap="round" transform="translate(458.15515109175817 311.0784630790448) rotate(0 4.740084502904779 4.841637138277946)"><path d="M0 0 C3.28 0, 6.56 0, 9.48 0 M0 0 C3.04 0, 6.08 0, 9.48 0 M9.48 0 C9.48 2.4, 9.48 4.8, 9.48 9.68 M9.48 0 C9.48 2.35, 9.48 4.7, 9.48 9.68 M9.48 9.68 C7.22 9.68, 4.96 9.68, 0 9.68 M9.48 9.68 C6.96 9.68, 4.44 9.68, 0 9.68 M0 9.68 C0 5.94, 0 2.2, 0 0 M0 9.68 C0 7.69, 0 5.69, 0 0" stroke="#000000" stroke-width="2" fill="none"></path></g><g stroke-linecap="round"><g transform="translate(463.12460047166246 319.15262317671113) rotate(270.82800827175043 -4.751399841722218 0.9728004411154245)"><path d="M0 0 C0.01 -0.87, 0.01 -1.75, 0.02 -3.74 M0 0 C0.01 -1.18, 0.02 -2.35, 0.02 -3.74 M0.02 -3.74 C-2.27 -3.75, -4.56 -3.77, -9.49 -3.81 M0.02 -3.74 C-3.63 -3.76, -7.28 -3.79, -9.49 -3.81 M-9.49 -3.81 C-9.51 -0.07, -9.52 3.67, -9.53 5.65 M-9.49 -3.81 C-9.5 -1.26, -9.51 1.29, -9.53 5.65 M-9.53 5.65 C-8.42 5.68, -7.31 5.71, -5.82 5.76 M-9.53 5.65 C-8.68 5.68, -7.84 5.7, -5.82 5.76" stroke="#000" stroke-width="2" fill="none"></path></g></g><mask></mask><g stroke-linecap="round"><g transform="translate(471.4352577262073 310.7340076914794) rotate(88.83086067209321 -4.7513998417221615 0.9728004411154245)"><path d="M0 0 C0.01 -1.28, 0.02 -2.56, 0.02 -3.74 M0 0 C0.01 -0.81, 0.01 -1.62, 0.02 -3.74 M0.02 -3.74 C-3.13 -3.76, -6.28 -3.78, -9.49 -3.81 M0.02 -3.74 C-2.21 -3.75, -4.45 -3.77, -9.49 -3.81 M-9.49 -3.81 C-9.51 -0.84, -9.52 2.13, -9.53 5.65 M-9.49 -3.81 C-9.51 -0.8, -9.52 2.22, -9.53 5.65 M-9.53 5.65 C-8.19 5.69, -6.86 5.73, -5.82 5.76 M-9.53 5.65 C-8.49 5.68, -7.46 5.71, -5.82 5.76" stroke="#000" stroke-width="2" fill="none"></path></g></g><mask></mask><g transform="translate(453.4208702791268 332.29407379717475) rotate(0 9.104537963867188 5.6063865061003355)"><text x="0" y="0" font-family="Virgil, Segoe UI Emoji" font-size="8.970218409760518px" fill="#000000" text-anchor="start" style="white-space: pre;" direction="ltr" dominant-baseline="text-before-edge">EC2</text></g><g stroke-linecap="round"><g transform="translate(250.211669921875 119.72369384765602) rotate(0 46.39435694642583 -27.074188232421875)"><path d="M0 0 C0.88 -5.77, -10.76 -25.6, 5.25 -34.63 C21.26 -43.65, 80.92 -50.89, 96.05 -54.15" stroke="#1864ab" stroke-width="1.5" fill="none" stroke-dasharray="8 9"></path></g><g transform="translate(250.211669921875 119.72369384765602) rotate(0 46.39435694642583 -27.074188232421875)"><path d="M69.98 -39.32 C80.2 -45.13, 90.42 -50.95, 96.05 -54.15" stroke="#1864ab" stroke-width="1.5" fill="none"></path></g><g transform="translate(250.211669921875 119.72369384765602) rotate(0 46.39435694642583 -27.074188232421875)"><path d="M66.54 -59.55 C78.11 -57.43, 89.68 -55.32, 96.05 -54.15" stroke="#1864ab" stroke-width="1.5" fill="none"></path></g></g><mask></mask><g stroke-linecap="round"><g transform="translate(481.9561767578125 119.69613647460915) rotate(0 -36.45679573180644 -29.546188354492188)"><path d="M0 0 C-0.67 -6.32, 8.59 -28.06, -4 -37.9 C-16.6 -47.75, -63.64 -55.56, -75.57 -59.09" stroke="#1864ab" stroke-width="1.5" fill="none" stroke-dasharray="8 9"></path></g><g transform="translate(481.9561767578125 119.69613647460915) rotate(0 -36.45679573180644 -29.546188354492188)"><path d="M-45.79 -62.69 C-54.23 -61.67, -62.68 -60.65, -75.57 -59.09" stroke="#1864ab" stroke-width="1.5" fill="none"></path></g><g transform="translate(481.9561767578125 119.69613647460915) rotate(0 -36.45679573180644 -29.546188354492188)"><path d="M-50.45 -42.7 C-57.57 -47.35, -64.7 -52, -75.57 -59.09" stroke="#1864ab" stroke-width="1.5" fill="none"></path></g></g><mask></mask><g stroke-linecap="round"><g transform="translate(66.62847900390625 309.7553710937498) rotate(0 71.09666570059181 -91.63746220993247)"><path d="M0 0 C-0.74 -28.18, -30.69 -140.01, -4.46 -169.07 C21.77 -198.13, 130.42 -173.46, 157.4 -174.34" stroke="#1864ab" stroke-width="2.5" fill="none" stroke-dasharray="1.5 8"></path></g><g transform="translate(66.62847900390625 309.7553710937498) rotate(0 71.09666570059181 -91.63746220993247)"><path d="M128.37 -166.78 C137.35 -169.12, 146.32 -171.46, 157.4 -174.34" stroke="#1864ab" stroke-width="2.5" fill="none" stroke-dasharray="1.5 6"></path></g><g transform="translate(66.62847900390625 309.7553710937498) rotate(0 71.09666570059181 -91.63746220993247)"><path d="M130.3 -187.21 C138.68 -183.23, 147.06 -179.25, 157.4 -174.34" stroke="#1864ab" stroke-width="2.5" fill="none" stroke-dasharray="1.5 6"></path></g></g><mask></mask><g stroke-linecap="round"><g transform="translate(685.6708984375 307.6553955078123) rotate(0 -82.24971541559307 -92.9932613589558)"><path d="M0 0 C0.53 -28.73, 33.26 -143.23, 3.19 -172.4 C-26.87 -201.58, -149.79 -174.61, -180.38 -175.05" stroke="#1864ab" stroke-width="2.5" fill="none" stroke-dasharray="1.5 8"></path></g><g transform="translate(685.6708984375 307.6553955078123) rotate(0 -82.24971541559307 -92.9932613589558)"><path d="M-153.35 -188.07 C-161.19 -184.29, -169.03 -180.51, -180.38 -175.05" stroke="#1864ab" stroke-width="2.5" fill="none" stroke-dasharray="1.5 6"></path></g><g transform="translate(685.6708984375 307.6553955078123) rotate(0 -82.24971541559307 -92.9932613589558)"><path d="M-151.31 -167.65 C-159.74 -169.79, -168.18 -171.94, -180.38 -175.05" stroke="#1864ab" stroke-width="2.5" fill="none" stroke-dasharray="1.5 6"></path></g></g><mask></mask><g stroke-linecap="round" transform="translate(51.0059814453125 107.10406494140602) rotate(0 134.53665161132812 171.42623901367188)"><path d="M32 0 M32 0 C97.9 0, 163.8 0, 237.07 0 M237.07 0 C258.41 0, 269.07 10.67, 269.07 32 M269.07 32 C269.07 104.58, 269.07 177.15, 269.07 310.85 M269.07 310.85 C269.07 332.19, 258.41 342.85, 237.07 342.85 M237.07 342.85 C191.02 342.85, 144.97 342.85, 32 342.85 M32 342.85 C10.67 342.85, 0 332.19, 0 310.85 M0 310.85 C0 206.56, 0 102.27, 0 32 M0 32 C0 10.67, 10.67 0, 32 0" stroke="#e67700" stroke-width="2.5" fill="none" stroke-dasharray="1.5 8"></path></g><g transform="translate(163.01251220703125 422.3406982421873) rotate(0 15.5625 9.199999999999989)"><text x="0" y="0" font-family="Helvetica, Segoe UI Emoji" font-size="16px" fill="#e67700" text-anchor="start" style="white-space: pre;" direction="ltr" dominant-baseline="text-before-edge">az-0</text></g><g stroke-linecap="round" transform="translate(411.84234619140625 108.77539062499977) rotate(0 137.90560913085938 168.71307373046875)"><path d="M32 0 M32 0 C79.87 0, 127.74 0, 243.81 0 M243.81 0 C265.14 0, 275.81 10.67, 275.81 32 M275.81 32 C275.81 102.17, 275.81 172.33, 275.81 305.43 M275.81 305.43 C275.81 326.76, 265.14 337.43, 243.81 337.43 M243.81 337.43 C171.14 337.43, 98.47 337.43, 32 337.43 M32 337.43 C10.67 337.43, 0 326.76, 0 305.43 M0 305.43 C0 201.3, 0 97.18, 0 32 M0 32 C0 10.67, 10.67 0, 32 0" stroke="#e67700" stroke-width="2.5" fill="none" stroke-dasharray="1.5 8"></path></g><g transform="translate(542.7159423828125 419.6847534179685) rotate(0 15.5625 9.199999999999989)"><text x="0" y="0" font-family="Helvetica, Segoe UI Emoji" font-size="16px" fill="#e67700" text-anchor="start" style="white-space: pre;" direction="ltr" dominant-baseline="text-before-edge">az-2</text></g></svg>